<?xml version="1.0" encoding="UTF-8" standalone="no"?>
<!-- Created with Inkscape (http://www.inkscape.org/) -->

<svg
   width="297mm"
   height="39mm"
   viewBox="0 0 297 39"
   version="1.1"
   id="svg5"
   inkscape:version="1.1.1 (3bf5ae0d25, 2021-09-20)"
   sodipodi:docname="vetores_logo_detalhes_de_baixo.svg"
   xmlns:inkscape="http://www.inkscape.org/namespaces/inkscape"
   xmlns:sodipodi="http://sodipodi.sourceforge.net/DTD/sodipodi-0.dtd"
   xmlns="http://www.w3.org/2000/svg"
   xmlns:svg="http://www.w3.org/2000/svg">
  <sodipodi:namedview
     id="namedview7"
     pagecolor="#ffffff"
     bordercolor="#666666"
     borderopacity="1.0"
     inkscape:pageshadow="2"
     inkscape:pageopacity="0.0"
     inkscape:pagecheckerboard="0"
     inkscape:document-units="mm"
     showgrid="false"
     inkscape:zoom="0.29380175"
     inkscape:cx="343.76923"
     inkscape:cy="420.35148"
     inkscape:window-width="1366"
     inkscape:window-height="715"
     inkscape:window-x="1352"
     inkscape:window-y="-8"
     inkscape:window-maximized="1"
     inkscape:current-layer="layer4" />
  <defs
     id="defs2">
    <inkscape:path-effect
       effect="bspline"
       id="path-effect54141"
       is_visible="true"
       lpeversion="1"
       weight="33.333333"
       steps="2"
       helper_size="0"
       apply_no_weight="true"
       apply_with_weight="true"
       only_selected="false" />
    <inkscape:path-effect
       effect="bspline"
       id="path-effect20211"
       is_visible="true"
       lpeversion="1"
       weight="33.333333"
       steps="2"
       helper_size="0"
       apply_no_weight="true"
       apply_with_weight="true"
       only_selected="false" />
    <inkscape:path-effect
       effect="bspline"
       id="path-effect20207"
       is_visible="true"
       lpeversion="1"
       weight="33.333333"
       steps="2"
       helper_size="0"
       apply_no_weight="true"
       apply_with_weight="true"
       only_selected="false" />
    <inkscape:path-effect
       effect="bspline"
       id="path-effect20203"
       is_visible="true"
       lpeversion="1"
       weight="33.333333"
       steps="2"
       helper_size="0"
       apply_no_weight="true"
       apply_with_weight="true"
       only_selected="false" />
    <inkscape:path-effect
       effect="bspline"
       id="path-effect20199"
       is_visible="true"
       lpeversion="1"
       weight="33.333333"
       steps="2"
       helper_size="0"
       apply_no_weight="true"
       apply_with_weight="true"
       only_selected="false" />
    <inkscape:path-effect
       effect="bspline"
       id="path-effect18167"
       is_visible="true"
       lpeversion="1"
       weight="33.333333"
       steps="2"
       helper_size="0"
       apply_no_weight="true"
       apply_with_weight="true"
       only_selected="false" />
    <inkscape:path-effect
       effect="bspline"
       id="path-effect18163"
       is_visible="true"
       lpeversion="1"
       weight="33.333333"
       steps="2"
       helper_size="0"
       apply_no_weight="true"
       apply_with_weight="true"
       only_selected="false" />
    <inkscape:path-effect
       effect="bspline"
       id="path-effect18159"
       is_visible="true"
       lpeversion="1"
       weight="33.333333"
       steps="2"
       helper_size="0"
       apply_no_weight="true"
       apply_with_weight="true"
       only_selected="false" />
    <inkscape:path-effect
       effect="bspline"
       id="path-effect18155"
       is_visible="true"
       lpeversion="1"
       weight="33.333333"
       steps="2"
       helper_size="0"
       apply_no_weight="true"
       apply_with_weight="true"
       only_selected="false" />
    <inkscape:path-effect
       effect="bspline"
       id="path-effect18151"
       is_visible="true"
       lpeversion="1"
       weight="33.333333"
       steps="2"
       helper_size="0"
       apply_no_weight="true"
       apply_with_weight="true"
       only_selected="false" />
    <inkscape:path-effect
       effect="bspline"
       id="path-effect887"
       is_visible="true"
       lpeversion="1"
       weight="33.333333"
       steps="2"
       helper_size="0"
       apply_no_weight="true"
       apply_with_weight="true"
       only_selected="false" />
    <inkscape:path-effect
       effect="bspline"
       id="path-effect289"
       is_visible="true"
       lpeversion="1"
       weight="33.333333"
       steps="2"
       helper_size="0"
       apply_no_weight="true"
       apply_with_weight="true"
       only_selected="false" />
  </defs>
  <g
     inkscape:groupmode="layer"
     id="layer4"
     inkscape:label="corpo"
     style="display:inline">
    <path
       id="path54086"
       style="fill:#557f41;fill-opacity:1;stroke-width:0.627489"
       d="m 132.95805,1.8627373 c -4.31705,0 -9.52757,1.964717 -14.56709,5.492992 -12.38419,8.6703867 -14.94826,10.2874957 -19.137223,12.0681517 -5.293705,2.250308 -11.380109,3.048028 -14.755818,1.933938 -1.245335,-0.41101 -3.155054,-1.762257 -4.244147,-3.002635 -1.67704,-1.910075 -1.924826,-2.600832 -1.621425,-4.51131 0.448306,-2.822696 3.46666,-5.7062237 5.97341,-5.7062237 2.313534,0 5.094688,2.1973017 5.094688,4.0259827 0,3.504606 -5.14722,4.814852 -5.537113,1.409403 -0.165302,-1.444124 0.01186,-1.736828 0.941246,-1.545439 0.635807,0.13115 1.104035,0.727327 1.05276,1.340769 -0.05075,0.607655 0.231707,0.997098 0.627482,0.865236 1.187539,-0.395846 0.814223,-2.429364 -0.621363,-3.382563 -1.207247,-0.801582 -1.516434,-0.742316 -3.076174,0.599307 -1.372169,1.180281 -1.64813,1.830958 -1.324832,3.119076 0.458789,1.82797 3.778101,3.309281 5.803057,2.589614 6.399433,-2.274355 4.933111,-10.5371557 -1.851828,-10.4344647 -5.526005,0.08348 -9.190529,3.4070147 -9.190529,8.3350637 0,2.62673 0.264625,3.219965 2.187649,4.908394 2.054814,1.80415 7.096203,3.77897 10.005511,3.91937 2.429302,0.11716 -5.983656,2.41931 -11.137934,3.04798 -5.550171,0.67693 -11.219445,0.15012 -14.893081,-1.38488 -6.57677,-2.74797 -10.65152,-11.916702 -7.771317,-17.4863917 2.217166,-4.287524 -0.660433,-6.685108 -3.69508,-3.078617 -4.374043,5.1982467 -2.014713,13.2816117 5.538332,18.9717587 4.087267,3.07918 7.627284,4.27818 13.893019,4.70616 8.43083,0.57592 18.020549,-1.81552 28.679473,-7.15239 3.052437,-1.52831 5.372677,-2.491736 5.155957,-2.141069 -0.75547,1.222359 -11.670569,8.172889 -16.237526,10.340099 -5.992312,2.84361 -11.437705,4.50166 -17.872442,5.44029 -12.598566,1.83779 -24.699142,-3.4063 -28.038492,-12.15025 -1.609404,-4.214173 -1.092892,-10.917328 1.187577,-15.3967867 1.973518,-3.876499 1.775085,-5.287705 -0.704697,-4.999079 -2.013039,0.234315 -4.23255,3.197695 -5.272389,7.03964 -0.660903,2.4418617 -0.461725,8.2685167 0.398312,11.6710757 l 0.395858,1.56873 -1.357932,-1.56873 c -0.746712,-0.8628 -3.027624,-3.612898 -5.068937,-6.110683 -2.041318,-2.497808 -4.88935,-5.3214757 -6.330049,-6.2748887 -2.293674,-1.517881 -3.223677,-1.732963 -7.474725,-1.732963 -4.389649,0 -5.113634,0.180954 -7.555617,1.897173 -4.6624241,3.2768837 -5.5239132,8.6813907 -2.043023,12.8182017 1.795533,2.13386 5.414995,3.35699 8.252969,2.7894 2.350507,-0.47011 6.319104,-3.66033 7.096023,-5.703786 1.178966,-3.100933 -2.985312,-7.164292 -6.181751,-6.032249 -2.926175,1.036324 -4.23565,4.001412 -2.523446,5.713599 1.169943,1.169941 1.45574,0.91689 1.448625,-1.285629 -0.0055,-1.842697 0.190915,-2.059249 2.029533,-2.236646 1.62833,-0.157001 2.167976,0.09771 2.703603,1.273344 1.607974,3.529157 -2.599019,7.367257 -7.141374,6.515107 -2.49513,-0.46808 -5.3991613,-3.420387 -5.5101529,-5.600826 -0.23645,-4.642578 1.0866265,-6.650292 5.4917689,-8.3326207 6.066211,-2.316688 10.177112,-0.02395 18.382261,10.2555257 2.775581,3.477311 6.531678,7.508441 8.347332,8.957681 3.971634,3.17007 10.607164,6.60637 15.086717,7.81298 7.346004,1.97869 17.771945,0.88414 27.585023,-2.89479 10.395224,-4.0031 18.415881,-9.27702 31.108551,-20.455916 8.43925,-7.4327827 13.02939,-9.4459277 20.62875,-9.0471407 2.75475,0.144668 5.17133,2.405434 5.62659,5.265032 0.33003,2.0731237 0.12143,2.5858187 -1.84203,4.5493027 -1.8616,1.861599 -2.65069,2.213381 -4.97336,2.213381 -1.51852,0 -3.09955,-0.339568 -3.51371,-0.753723 -0.9679,-0.967904 -0.9679,-3.173292 0,-4.141196 0.58567,-0.585551 0.52083,-0.752489 -0.29166,-0.752489 -1.08943,0 -2.34452,1.778521 -2.34452,3.323723 0,0.493296 0.74465,1.64175 1.65452,2.551644 4.37867,4.378642 14.66584,-0.580073 13.85135,-6.6769017 -0.29844,-2.233966 0.69797,-1.924897 2.53447,0.7855977 2.74652,4.053635 1.33527,10.097576 -3.03327,12.988556 -4.28472,2.83547 -10.76381,2.71642 -13.51187,-0.24881 -1.64912,-1.77947 -2.65651,-1.61716 -1.46089,0.23526 2.4867,3.85288 8.02364,5.56865 12.83905,3.97943 2.92557,-0.96553 6.79975,-4.40008 7.86567,-6.97347 l 0.80398,-1.94252 0.91181,1.792988 c 3.3126,6.514352 11.39314,9.635372 17.06723,6.592332 2.43287,-1.30477 4.8822,-4.21642 4.15713,-4.9415 -0.26162,-0.26161 -0.7657,0.0432 -1.12019,0.67653 -1.6778,2.99808 -8.56119,3.78851 -13.08779,1.50377 -6.17261,-3.11554 -7.51276,-11.29764 -2.58106,-15.7607817 1.28241,-1.160549 1.28933,-1.15296 0.97557,0.94369 -0.61804,4.1295977 3.95604,8.6930827 8.71743,8.6978257 4.75625,0.0047 7.79457,-3.082174 6.11803,-6.21484 -1.0363,-1.9363047 -1.93896,-1.5963107 -1.50623,0.567432 0.51034,2.551644 -0.64817,3.766172 -3.59212,3.766172 -3.39952,0 -5.37808,-1.08748 -6.57883,-3.617875 -1.30508,-2.7502187 -0.65066,-5.4589587 1.75378,-7.2541287 1.33031,-0.993114 2.6097,-1.262672 5.79814,-1.22188 6.03773,0.07708 10.26988,2.360492 20.09439,10.8401297 14.86554,12.830646 26.33396,19.189656 39.11637,21.688846 9.50298,1.85802 17.06592,0.91855 25.07387,-3.11417 6.26189,-3.15344 10.15959,-6.52052 15.9446,-13.771682 8.20318,-10.2822067 12.2207,-12.5237857 18.29158,-10.2052957 5.28555,2.0185767 7.06862,6.0229057 4.76744,10.7102367 -2.15843,4.396691 -9.80162,4.377311 -11.64287,-0.02941 -1.26241,-3.021366 -0.29894,-4.797942 2.45725,-4.530922 1.79724,0.174076 1.99847,0.398241 1.99278,2.23297 -0.007,2.202519 0.27868,2.45557 1.44863,1.285629 1.73301,-1.73301 0.40253,-4.673291 -2.59823,-5.741775 -1.61485,-0.575021 -5.12174,1.231651 -5.95991,3.071265 -0.87797,1.926937 -0.18783,3.822806 2.18886,6.015084 4.00181,3.69122 9.8555,3.64099 13.01305,-0.11147 5.1436,-6.112814 0.55336,-14.2602357 -8.39879,-14.9077807 -6.45838,-0.467161 -9.73188,1.527367 -16.4177,10.0030677 -2.44079,3.094243 -4.54048,5.521353 -4.66693,5.394953 -0.12641,-0.12641 0.0467,-1.19729 0.38605,-2.38006 2.19517,-7.654128 -1.08286,-17.5317137 -5.81776,-17.5317137 -1.87488,0 -1.90377,1.5688 -0.0944,5.11306 2.35848,4.6198097 2.82801,11.6528337 1.04664,15.6798837 -1.83831,4.15583 -4.67296,7.02098 -9.08758,9.18318 -12.54081,6.14227 -30.04935,2.7533 -47.85833,-9.26408 -6.45499,-4.355751 -6.42285,-4.950932 0.0906,-1.69862 16.29491,8.13635 31.18391,9.61078 40.37503,3.99779 9.43172,-5.759898 12.76239,-15.225178 7.37914,-20.9718857 -2.84777,-3.040007 -5.06224,-0.827029 -3.32743,3.324957 2.59204,6.2035987 -0.57442,14.1744087 -6.83373,17.2044987 -5.78767,2.80171 -15.80655,2.85064 -24.62654,0.12001 l -3.65217,-1.12998 3.12273,-0.48656 c 3.44677,-0.53627 7.24787,-2.26471 9.14028,-4.157114 1.73865,-1.738655 1.69269,-6.744256 -0.0821,-9.000563 -4.45045,-5.6578427 -13.74963,-4.6093037 -13.74963,1.550348 0,1.847986 0.40991,2.689293 1.93149,3.969609 2.12905,1.791471 3.4739,1.994552 5.89866,0.889759 2.11124,-0.961951 2.70725,-3.323581 1.2464,-4.937821 -1.9794,-2.1871737 -6.04847,-0.918787 -5.08733,1.585899 0.49653,1.294048 1.54044,1.202836 1.4327,-0.124984 -0.0479,-0.590722 0.42784,-1.1804 1.05764,-1.310127 0.92868,-0.19139 1.10657,0.101268 0.94125,1.545439 -0.249,2.174723 -2.51522,2.752188 -4.33484,1.105457 -1.68783,-1.527462 -1.49976,-3.706028 0.45101,-5.2405337 2.49008,-1.958693 4.99401,-1.681664 7.50782,0.8321757 2.78366,2.783659 2.8402,5.176192 0.19353,8.190443 -2.37556,2.705613 -5.84404,3.756973 -10.72248,3.251433 -6.67543,-0.69175 -11.85366,-3.308873 -24.43166,-12.3488047 -7.52352,-5.407258 -10.63615,-6.863833 -15.66027,-7.330116 -6.54954,-0.607869 -15.0529,3.162596 -17.38588,7.710049 l -1.18144,2.3040467 -0.84074,-2.0283 C 147.04545,6.0622493 138.94733,1.8626653 132.95784,1.8626653 Z" />
  </g>
  <g
     inkscape:groupmode="layer"
     id="layer3"
     inkscape:label="Camada 3"
     style="display:inline" />
  <g
     inkscape:groupmode="layer"
     id="layer2"
     inkscape:label="Camada 2"
     style="display:inline" />
  <g
     inkscape:label="Camada 1"
     inkscape:groupmode="layer"
     id="layer1"
     style="display:inline" />
</svg>
