<?xml version="1.0" encoding="UTF-8" standalone="no"?>
<!-- Created with Inkscape (http://www.inkscape.org/) -->

<svg
   width="297mm"
   height="210mm"
   viewBox="0 0 297 210"
   version="1.1"
   id="svg5"
   inkscape:version="1.1.1 (3bf5ae0d25, 2021-09-20)"
   sodipodi:docname="vetores_logo.svg"
   xmlns:inkscape="http://www.inkscape.org/namespaces/inkscape"
   xmlns:sodipodi="http://sodipodi.sourceforge.net/DTD/sodipodi-0.dtd"
   xmlns="http://www.w3.org/2000/svg"
   xmlns:svg="http://www.w3.org/2000/svg">
  <sodipodi:namedview
     id="namedview7"
     pagecolor="#ffffff"
     bordercolor="#666666"
     borderopacity="1.0"
     inkscape:pageshadow="2"
     inkscape:pageopacity="0.0"
     inkscape:pagecheckerboard="0"
     inkscape:document-units="mm"
     showgrid="false"
     inkscape:zoom="0.29380175"
     inkscape:cx="662.01103"
     inkscape:cy="648.39641"
     inkscape:window-width="1360"
     inkscape:window-height="715"
     inkscape:window-x="-8"
     inkscape:window-y="-8"
     inkscape:window-maximized="1"
     inkscape:current-layer="layer2"
     showguides="true"
     inkscape:guide-bbox="true">
    <sodipodi:guide
       position="-123.37543,288.89505"
       orientation="1,0"
       id="guide847" />
  </sodipodi:namedview>
  <defs
     id="defs2">
    <inkscape:path-effect
       effect="bspline"
       id="path-effect54141"
       is_visible="true"
       lpeversion="1"
       weight="33.333333"
       steps="2"
       helper_size="0"
       apply_no_weight="true"
       apply_with_weight="true"
       only_selected="false" />
    <inkscape:path-effect
       effect="bspline"
       id="path-effect20211"
       is_visible="true"
       lpeversion="1"
       weight="33.333333"
       steps="2"
       helper_size="0"
       apply_no_weight="true"
       apply_with_weight="true"
       only_selected="false" />
    <inkscape:path-effect
       effect="bspline"
       id="path-effect20207"
       is_visible="true"
       lpeversion="1"
       weight="33.333333"
       steps="2"
       helper_size="0"
       apply_no_weight="true"
       apply_with_weight="true"
       only_selected="false" />
    <inkscape:path-effect
       effect="bspline"
       id="path-effect20203"
       is_visible="true"
       lpeversion="1"
       weight="33.333333"
       steps="2"
       helper_size="0"
       apply_no_weight="true"
       apply_with_weight="true"
       only_selected="false" />
    <inkscape:path-effect
       effect="bspline"
       id="path-effect20199"
       is_visible="true"
       lpeversion="1"
       weight="33.333333"
       steps="2"
       helper_size="0"
       apply_no_weight="true"
       apply_with_weight="true"
       only_selected="false" />
    <inkscape:path-effect
       effect="bspline"
       id="path-effect18167"
       is_visible="true"
       lpeversion="1"
       weight="33.333333"
       steps="2"
       helper_size="0"
       apply_no_weight="true"
       apply_with_weight="true"
       only_selected="false" />
    <inkscape:path-effect
       effect="bspline"
       id="path-effect18163"
       is_visible="true"
       lpeversion="1"
       weight="33.333333"
       steps="2"
       helper_size="0"
       apply_no_weight="true"
       apply_with_weight="true"
       only_selected="false" />
    <inkscape:path-effect
       effect="bspline"
       id="path-effect18159"
       is_visible="true"
       lpeversion="1"
       weight="33.333333"
       steps="2"
       helper_size="0"
       apply_no_weight="true"
       apply_with_weight="true"
       only_selected="false" />
    <inkscape:path-effect
       effect="bspline"
       id="path-effect18155"
       is_visible="true"
       lpeversion="1"
       weight="33.333333"
       steps="2"
       helper_size="0"
       apply_no_weight="true"
       apply_with_weight="true"
       only_selected="false" />
    <inkscape:path-effect
       effect="bspline"
       id="path-effect18151"
       is_visible="true"
       lpeversion="1"
       weight="33.333333"
       steps="2"
       helper_size="0"
       apply_no_weight="true"
       apply_with_weight="true"
       only_selected="false" />
    <inkscape:path-effect
       effect="bspline"
       id="path-effect887"
       is_visible="true"
       lpeversion="1"
       weight="33.333333"
       steps="2"
       helper_size="0"
       apply_no_weight="true"
       apply_with_weight="true"
       only_selected="false" />
    <inkscape:path-effect
       effect="bspline"
       id="path-effect289"
       is_visible="true"
       lpeversion="1"
       weight="33.333333"
       steps="2"
       helper_size="0"
       apply_no_weight="true"
       apply_with_weight="true"
       only_selected="false" />
  </defs>
  <g
     inkscape:groupmode="layer"
     id="layer4"
     inkscape:label="corpo"
     style="display:inline" />
  <g
     inkscape:groupmode="layer"
     id="layer3"
     inkscape:label="Camada 3"
     style="display:inline">
    <path
       style="fill:#faca64;fill-opacity:1;stroke:#faca64;stroke-width:0.590138px;stroke-linecap:butt;stroke-linejoin:miter;stroke-opacity:1"
       d="m 173.27734,44.819867 c -2.81193,-0.442618 -8.43646,-1.327958 -11.61365,-1.275866 -3.17718,0.05209 -3.90626,1.041569 -4.27078,2.031317 -0.36451,0.989748 -0.36451,1.979239 -0.0519,3.125048 0.31266,1.145808 0.93759,2.447743 1.71894,3.437133 0.78135,0.98939 1.71875,1.666407 2.63016,2.239226 0.9114,0.572819 1.79672,1.041513 2.78623,1.43202 0.98951,0.390507 2.08314,0.70297 3.20272,0.728859 1.11957,0.02589 2.26528,-0.234493 3.77551,-0.78134 1.51024,-0.546848 3.38502,-1.380088 4.71287,-2.317409 1.32785,-0.937322 2.10902,-1.978893 2.96832,-3.176703 0.85929,-1.19781 1.7967,-2.551842 2.76016,-3.984013 0.96347,-1.43217 1.95296,-2.942428 2.62999,-4.556742 0.67703,-1.614314 1.04157,-3.332869 1.09374,-5.10346 0.0522,-1.770591 -0.20823,-3.593316 -0.5727,-5.129632 -0.36448,-1.536317 -0.83317,-2.786173 -1.48403,-3.905917 -0.65086,-1.119743 -1.4841,-2.10922 -2.49962,-3.228945 -1.01553,-1.119725 -2.21333,-2.369606 -3.64546,-3.541465 -1.43213,-1.17186 -3.09863,-2.265498 -5.15577,-3.072876 -2.05714,-0.807378 -4.50478,-1.328159 -6.37968,-1.58863 -1.8749,-0.260471 -3.17685,-0.260471 -4.73926,-0.182371 -1.56241,0.0781 -3.38514,0.234342 -5.36426,0.7551 -1.97913,0.520757 -4.11434,1.406086 -6.22361,2.447677 -2.10927,1.041592 -4.19238,2.239373 -6.11938,3.593473 -1.92701,1.3541 -3.69765,2.864362 -5.33822,4.739318 -1.64057,1.874956 -3.15082,4.114286 -4.37469,6.0673 -1.22388,1.953015 -2.16127,3.619488 -2.91643,5.286109 -0.75516,1.66662 -1.32801,3.3331 -2.00504,5.442339 -0.67703,2.10924 -1.45819,4.661049 -2.10917,7.317142 -0.65098,2.656092 -1.17177,5.416203 -1.45815,7.968149 -0.28638,2.551946 -0.33842,4.895457 -0.3905,8.072309 -0.0521,3.176851 -0.1042,7.186856 -3e-5,10.806385 0.10418,3.619529 0.36457,6.848372 0.44265,9.868934 0.0781,3.020561 -0.0261,5.832753 -0.0521,7.603477 -0.026,1.770723 0.0261,2.499818 1.48458,2.551525 1.45845,0.05171 4.32274,-0.57323 5.71473,-1.266992 1.392,-0.693762 1.31197,-1.457714 1.232,-2.221027 2.63183,-0.538658 5.26412,-1.077409 8.60026,-2.328642 3.33615,-1.251232 7.3764,-3.214813 11.41699,-5.178554 12.13437,0.520788 35.6775,1.531222 36.1531,1.206144 0.47559,-0.325077 7.7925,-22.423813 11.56375,-33.81383 0,0 4.64134,0 4.64134,0 0,0 1.92059,19.594294 1.92059,19.594294 0,0 32.65344,0.156134 32.65344,0.156134 0,0 5.31204,-6.718146 5.31204,-6.718146 0.83326,1.666522 1.66687,3.333737 2.2136,4.817987 0.54672,1.484251 0.80711,2.786179 0.96327,4.244368 0.15616,1.458189 0.2082,3.072613 0.23421,4.478745 0.026,1.406132 0.026,2.603919 -0.10424,3.697496 -0.13026,1.093577 -0.39064,2.08305 -0.57289,3.176777 -0.18224,1.093727 -0.2864,2.291521 -0.59891,3.411082 -0.31252,1.119561 -0.83329,2.161121 -1.14574,3.098672 -0.31245,0.937551 -0.41661,1.770796 -0.7291,2.577853 -0.3125,0.807057 -0.83318,1.588088 -1.35397,2.369274 0,0 -0.15636,-3.280976 -0.15636,-3.280976 -0.57286,1.614444 -1.14583,3.229218 -1.71869,4.479033 -0.57286,1.24981 -1.14571,2.13512 -1.69256,3.09863 -0.54685,0.96352 -1.06762,2.00508 -1.87478,3.02049 -0.80716,1.01542 -1.90081,2.00489 -2.89031,2.89023 -0.9895,0.88534 -1.87482,1.66652 -2.91637,2.47372 -1.04155,0.80721 -2.23933,1.64045 -3.61933,2.31747 -1.38,0.67702 -2.94232,1.19779 -4.19213,1.5103 -1.24982,0.31251 -2.18775,0.41672 -3.12517,0.52087 -0.15624,12.75932 -0.31248,25.5192 -0.31247,37.47143 1e-5,11.95222 0.15624,23.09687 0.65117,29.52868 0.49492,6.43181 1.32816,8.15037 2.18753,9.6867 0.85936,1.53633 1.74468,2.89035 2.55191,4.1663 0.80722,1.27595 1.5363,2.47373 2.31747,3.87989 0.78116,1.40616 1.61404,3.01986 2.4473,4.6343 -3.22889,-0.15624 -6.45716,-0.31244 -9.13928,-0.33851 -2.68211,-0.0261 -4.8173,0.0781 -6.04108,0.0263 -1.22378,-0.0518 -1.53695,-0.26062 -1.84943,-0.46894 0,0 4.99957,-0.62492 4.99957,-0.62492 -1.61444,-0.41663 -3.22818,-0.83309 -4.58227,-1.48391 -1.3541,-0.65083 -2.44773,-1.53615 -3.22912,-2.70784 -0.78139,-1.17169 -1.25009,-2.62989 -1.56265,-4.16626 -0.31255,-1.53637 -0.46879,-3.15078 -0.15637,-9.76495 0.31243,-6.61417 1.09364,-18.22809 1.87482,-29.84167 -3.4372,-7.08272 -6.87405,-14.16473 -9.39971,-18.01879 -2.52565,-3.85406 -4.14007,-4.479 -4.27028,-4.27056 -0.1302,0.20845 1.22381,1.25 0.83322,1.4061 -0.39059,0.15611 -2.52578,-0.57299 -4.55687,-1.30208 -2.03109,-0.7291 -3.95798,-1.45819 -6.11928,-2.10923 -2.1613,-0.65104 -4.55689,-1.2239 -7.21296,-1.64059 -2.65606,-0.41669 -5.57243,-0.67708 -8.64514,-0.80731 -3.0727,-0.13023 -6.30153,-0.13023 -9.32218,0.078 -3.02065,0.20829 -5.83287,0.62492 -8.30662,0.96344 -2.47376,0.33852 -4.60895,0.59891 -6.1192,0.72914 -1.51025,0.13023 -2.3956,0.13023 -3.67176,0.65098 -1.27616,0.52075 -2.94264,1.5623 -4.21863,2.44767 -1.27599,0.88537 -2.16131,1.61446 -3.1509,2.78634 -0.98958,1.17187 -2.08322,2.78628 -2.94254,4.14038 -0.85932,1.3541 -1.48424,2.44773 -2.18731,3.59346 -0.70306,1.14573 -1.48422,2.34351 -1.90084,3.64571 -0.41661,1.3022 -0.46873,2.70829 -0.70316,3.95807 -0.23443,1.24977 -0.65106,2.34342 -2.42177,6.1452 -1.77071,3.80178 -4.89538,10.31152 -7.65536,10.9106 -2.75999,0.59908 -5.15557,-4.71286 -6.30147,-10.02502 -1.1459,-5.31216 -1.04174,-10.62411 -0.59875,-13.25434 0.443,-2.63023 1.22418,-2.57811 1.61445,-4.11416 0.39028,-1.53606 0.39028,-4.66074 0.59856,-7.70743 0.20829,-3.04669 0.62491,-6.01513 0.83326,-8.80133 0.20835,-2.7862 0.20835,-5.39008 0.10422,-7.81174 -0.10413,-2.42166 -0.31244,-4.66101 -0.49473,-7.23895 -0.18229,-2.57794 -0.33852,-5.4943 -0.70306,-9.55649 -0.36454,-4.062183 -0.93739,-9.269964 -1.40611,-13.644622 -0.46871,-4.374659 -0.83326,-7.915961 -1.09367,-11.30112 -0.26042,-3.385159 -0.41665,-6.614006 -0.41667,-10.441865 -2e-5,-3.827859 0.15621,-8.254476 0.59885,-12.264644 0.44264,-4.010168 1.17172,-7.603533 2.18726,-11.014809 1.01554,-3.411275 2.31748,-6.6401 3.69759,-9.634705 1.3801,-2.994605 2.83828,-5.75472 4.81735,-8.462953 1.97908,-2.708233 4.47881,-5.364202 6.27556,-7.186996 1.79676,-1.822794 2.89039,-2.812271 4.40075,-3.932012 1.51037,-1.119742 3.43725,-2.369603 5.46845,-3.333077 2.03121,-0.9634738 4.16641,-1.6404873 6.53603,-2.3435539 2.36962,-0.7030667 4.97351,-1.4321545 7.18697,-1.8226819 2.21345,-0.3905274 4.03619,-0.4425708 6.35374,-0.4425563 2.31755,1.44e-5 5.12974,0.052057 7.81189,0.4948285 2.68214,0.4427713 5.23395,1.276008 7.36919,2.1874809 2.13525,0.9114729 3.85382,1.9009577 5.54639,2.9165187 1.69257,1.015561 3.35906,2.057119 4.86932,3.228976 1.51025,1.171857 2.86428,2.473808 4.16625,3.7758 1.30197,1.301992 2.55184,2.60395 3.64541,4.088266 1.09358,1.484316 2.03097,3.1508 2.78601,5.129815 0.75504,1.979016 1.3279,4.270443 1.64028,6.666053 0.31237,2.395609 0.36441,4.895345 -0.18251,7.447069 -0.54693,2.551724 -1.69264,5.155618 -2.9165,7.57726 -1.22385,2.421642 -2.5258,4.660988 -4.11418,6.822202 -1.58839,2.161214 -3.46319,4.244323 -5.49418,5.884749 -2.03098,1.640427 -4.21824,2.838217 -6.4836,3.749611 -2.26535,0.911394 -4.60884,1.53633 -7.00441,1.848859 -2.39556,0.312529 -4.84322,0.312529 -7.21278,1.41e-4 -2.36956,-0.312388 -4.66097,-0.937323 -6.3275,-1.536139 -1.66653,-0.598816 -2.70809,-1.171679 -3.61956,-1.926706 -0.91148,-0.755027 -1.69264,-1.692412 -2.49988,-2.681921 -0.80724,-0.98951 -1.64048,-2.031068 -2.47383,-3.306994 -0.83334,-1.275926 -1.66658,-2.78618 -2.26559,-4.192319 -0.599,-1.406139 -0.96354,-2.708072 -1.19797,-4.244457 -0.23443,-1.536385 -0.33857,-3.307023 -0.39067,-4.817346 -0.0521,-1.510323 -0.0521,-2.760202 -0.0521,-3.671583 0,-0.911381 0,-1.484228 0,-1.874791 0,-0.390564 0,-0.598955 0.88551,-1.01594 0.88552,-0.416984 2.65616,-1.041919 3.8798,-1.901093 1.22364,-0.859175 1.90066,-1.952803 2.96843,-2.942439 1.06777,-0.989635 2.52595,-1.87496 3.74997,-2.369686 1.22402,-0.494726 2.21352,-0.598888 3.43743,-0.624871 1.2239,-0.02598 2.68211,0.02614 3.98413,0.312751 1.30203,0.286613 2.44775,0.8074 3.67157,1.588686 1.22383,0.781285 2.52578,1.822846 3.69748,3.07283 1.1717,1.249985 2.21325,2.708161 2.89014,4.010153 0.67688,1.301992 0.98936,2.447705 1.06734,3.385005 0.078,0.937299 -0.0783,1.666399 -0.15633,2.030728 -0.0781,0.364328 -0.0777,0.364173 -2.88964,-0.07844 z"
       id="path885"
       sodipodi:nodetypes="cccccccccccccccccccccccccccccccccccccccccccccccccccccccccccccccccccccccccccccccccccccccccccccccccccccccccccccccccccccccccccccccccccccccccccccccccccccccccc"
       inkscape:original-d="m 176.08927,45.262485 c -5.62394,-0.884755 -11.24847,-1.770081 -16.87357,-2.656019 -0.72853,0.990116 -1.45761,1.979593 -2.1873,2.968505 6e-4,0.990095 6e-4,1.979586 0,2.968477 0.62555,1.30261 1.25048,2.604544 1.87484,3.905921 0.93802,0.67763 1.87543,1.354636 2.81226,2.03109 0.88594,0.469302 1.77126,0.937992 2.65602,1.406119 1.09426,0.313064 2.18789,0.625527 3.28096,0.937408 1.14635,-0.259798 2.29206,-0.520181 3.43722,-0.781169 1.87546,-0.832694 3.75024,-1.665945 5.62452,-2.499794 0.78177,-1.040995 1.56294,-2.082567 2.34352,-3.124724 0.93804,-1.353481 1.87544,-2.707517 2.81226,-4.06216 0.99012,-1.509719 1.9796,-3.019982 2.96851,-4.530843 0.36515,-1.718069 0.72969,-3.436624 1.09366,-5.155813 -0.25983,-1.822206 -0.52021,-3.644933 -0.7812,-5.468272 -0.46813,-1.249345 -0.93684,-2.499195 -1.40612,-3.749674 -0.83269,-0.988941 -1.66594,-1.97841 -2.49979,-2.968513 -1.19724,-1.249315 -2.39504,-2.499196 -3.59343,-3.749673 -1.66597,-1.093098 -3.33247,-2.186732 -4.99957,-3.280963 -2.44719,-0.520209 -4.89483,-1.040996 -7.34313,-1.562387 -1.3014,6.06e-4 -2.60335,6.06e-4 -3.90592,0 -1.8222,0.156803 -3.64492,0.313091 -5.46827,0.468732 -2.13467,0.885931 -4.26988,1.771264 -6.4057,2.656013 -2.08261,1.198417 -4.16571,2.396214 -6.24947,3.593427 -1.77012,1.51091 -3.54076,3.021173 -5.31203,4.530878 -1.50972,2.240039 -3.01998,4.47936 -4.53086,6.718173 -0.93686,1.667149 -1.87424,3.333629 -2.81226,4.999574 -0.57229,1.667143 -1.14514,3.333623 -1.7186,4.999568 -0.78062,2.552503 -1.56179,5.10431 -2.34354,7.655587 -0.52022,2.760825 -1.04099,5.520939 -1.56239,8.280539 -0.0515,2.344174 -0.10348,4.687687 -0.15612,7.030636 -0.0515,4.010748 -0.10349,8.020755 -0.15636,12.030227 0.26098,3.229534 0.52139,6.458376 0.7812,9.686663 -0.1035,2.812904 -0.20767,5.625096 -0.31248,8.436771 0.0526,0.729716 0.10481,1.458804 0.15634,2.187313 2.86499,-0.624362 5.72928,-1.249295 8.59302,-1.874845 -0.0794,-0.762725 -0.2399,-2.289938 -0.2399,-2.289938 0,0 5.26426,-1.076724 7.89549,-1.615973 4.04127,-1.963174 12.12176,-5.891223 12.12176,-5.891223 0,0 35.67748,1.531781 36.40311,1.562364 0.22628,-0.681065 11.31374,-34.17005 11.31374,-34.17005 h 4.64134 l 1.92059,19.594294 32.65344,0.156134 5.31204,-6.718146 c 0,0 1.6671,3.333623 2.49979,4.999566 0.26099,1.302581 0.52137,2.60451 0.78118,3.905913 0.0526,1.615048 0.10483,3.229465 0.15612,4.843328 5.9e-4,1.198425 5.9e-4,2.396212 0,3.593432 -0.2598,0.99012 -0.5202,1.979589 -0.78118,2.968503 -0.1035,1.198419 -0.20766,2.396213 -0.31247,3.593432 -0.52021,1.042195 -1.04099,2.083753 -1.56236,3.124748 -0.1035,0.833847 -0.20766,1.667092 -0.31249,2.499775 -0.52021,0.781793 -1.56236,2.343557 -1.56236,2.343557 l -0.15636,-3.280976 c 0,0 -1.14513,3.229466 -1.71857,4.843333 -0.57231,0.88595 -1.14515,1.77126 -1.71861,2.65601 -0.5202,1.0422 -1.04099,2.08375 -1.56236,3.12475 -1.0931,0.99009 -2.18673,1.97958 -3.28099,2.96847 -0.88475,0.7818 -1.77008,1.56296 -2.65601,2.34356 -1.19725,0.83387 -2.39504,1.6671 -3.59343,2.49977 -1.56184,0.52138 -3.12415,1.04218 -4.68711,1.56239 -0.93683,0.10482 -2.81226,0.31246 -2.81226,0.31246 0,0 -0.31189,25.51921 -0.46871,38.27795 0.1568,11.14569 0.31307,22.29034 0.46871,33.43462 0.83387,1.71923 1.66712,3.43778 2.49979,5.15582 0.88596,1.35465 1.77127,2.70867 2.65602,4.06213 0.72972,1.19844 1.45881,2.39621 2.18732,3.59345 0.83387,1.61507 2.49978,4.84333 2.49978,4.84333 0,0 -6.45719,-0.31189 -9.68667,-0.46871 -2.13469,0.10483 -4.26988,0.20899 -6.40569,0.31247 -0.31191,-0.20766 -0.93743,-0.62496 -0.93743,-0.62496 l 4.99957,-0.62492 c 0,0 -3.22829,-0.83267 -4.84333,-1.2499 -1.09309,-0.88477 -2.18672,-1.77009 -3.28096,-2.65601 -0.46813,-1.45765 -0.93683,-2.91585 -1.40612,-4.37463 -0.15569,-1.61389 -0.31188,-3.2283 -0.46873,-4.84335 0.78179,-11.6132 2.34355,-34.84074 2.34355,-34.84074 0,0 -6.87382,-14.16484 -10.3116,-21.24816 -1.61388,-0.62438 -3.22831,-1.24931 -4.84333,-1.87486 1.35467,1.04221 2.70868,2.08376 4.06213,3.12475 -2.13467,-0.72854 -4.26987,-1.45762 -6.40568,-2.18731 -1.92637,-0.72853 -3.85326,-1.45763 -5.78076,-2.18731 -2.39508,-0.57229 -4.79067,-1.14516 -7.18688,-1.7186 -2.91587,-0.25983 -5.83224,-0.52021 -8.74925,-0.7812 -3.22835,6.1e-4 -6.45718,6.1e-4 -9.68665,0 -2.81173,0.41723 -5.62395,0.83385 -8.43679,1.2499 -2.13469,0.26099 -4.26988,0.52136 -6.4057,0.78119 -0.88476,5.9e-4 -1.77011,5.9e-4 -2.65603,0 -1.66597,1.04218 -3.33245,2.08373 -4.99957,3.12473 -0.88475,0.72971 -1.77008,1.4588 -2.65602,2.18731 -1.09307,1.61506 -2.18671,3.22946 -3.28097,4.84331 -0.62437,1.09429 -1.24929,2.18792 -1.87482,3.28098 -0.78062,1.19844 -1.56178,2.39622 -2.34355,3.59345 -0.0515,1.40675 -0.1035,2.81285 -0.15636,4.21838 -0.41604,1.09427 -0.83267,2.18791 -1.2499,3.28097 -3.12421,6.51056 -6.24887,13.02031 -9.37419,19.52958 -2.39509,-5.31157 -4.79066,-10.62352 -7.18688,-15.93613 0.10483,-5.31157 0.20899,-10.62352 0.31246,-15.93615 0.7818,0.0526 1.56297,0.10484 2.34356,0.15636 6e-4,-3.12419 6e-4,-6.24887 0,-9.3742 0.41722,-2.96796 0.83385,-5.9364 1.24989,-8.90549 5.8e-4,-2.6034 5.8e-4,-5.20728 0,-7.8118 -0.20765,-2.23886 -0.41604,-4.4782 -0.62495,-6.71818 -0.15568,-2.91588 -0.31188,-5.83224 -0.4687,-8.74925 -0.57229,-5.20739 -1.14516,-10.415169 -1.7186,-15.623642 -0.36397,-3.540843 -0.72851,-7.082146 -1.09366,-10.624092 -0.15569,-3.228342 -0.31188,-6.457191 -0.4687,-9.686677 0.15679,-4.426185 0.31306,-8.8528 0.4687,-13.280106 0.72971,-3.592913 1.4588,-7.186278 2.18731,-10.78031 1.30258,-3.228374 2.60454,-6.457192 3.90591,-9.686678 1.45883,-2.759642 2.91701,-5.519755 4.37463,-8.280537 2.50042,-2.655492 5.00015,-5.311462 7.49934,-7.96806 1.09428,-0.988934 2.18791,-1.978409 3.28097,-2.968505 1.92756,-1.249316 3.85443,-2.499191 5.78077,-3.74967 2.13585,-0.6764496 4.27105,-1.3534574 6.40568,-2.0310676 2.60459,-0.7285314 5.20848,-1.4576199 7.81184,-2.1873107 1.82337,-0.051525 3.64611,-0.103493 5.46827,-0.1561316 2.81291,0.052639 5.6251,0.1048312 8.43676,0.1561316 2.55253,0.8338529 5.10433,1.6671037 7.65561,2.4997739 1.71921,0.9901185 3.43779,1.9795894 5.1558,2.9685034 1.66714,1.042176 3.33364,2.083727 4.99956,3.124721 1.35467,1.302582 2.7087,2.604536 4.06216,3.905914 1.2505,1.302581 2.50037,2.604543 3.74967,3.90592 0.93804,1.667149 1.87543,3.333637 2.81226,4.999575 0.57347,2.2921 1.14632,4.58353 1.71861,6.874397 0.0526,2.500442 0.10483,5.000174 0.15612,7.499369 -1.14517,2.604579 -2.29088,5.208474 -3.4372,7.811828 -1.30142,2.240016 -2.60336,4.479365 -3.90592,6.718178 -1.87428,2.083771 -3.74909,4.166874 -5.62452,6.249448 -2.18677,1.198418 -4.37403,2.396215 -6.56193,3.593449 -2.34301,0.625549 -4.6865,1.250478 -7.03063,1.874851 -2.44718,5.77e-4 -4.89484,5.77e-4 -7.34313,0 -2.29094,-0.624373 -4.58235,-1.249323 -6.87441,-1.874851 -1.041,-0.572291 -2.08256,-1.145159 -3.12472,-1.718605 -0.78062,-0.936852 -1.56177,-1.874245 -2.34357,-2.812259 -0.83267,-1.041016 -1.66592,-2.082567 -2.49978,-3.124745 -0.83269,-1.509727 -1.66594,-3.019981 -2.49979,-4.530843 -0.36395,-1.301418 -0.72848,-2.603352 -1.09364,-3.905913 -0.10349,-1.77013 -0.20765,-3.540767 -0.31245,-5.31206 5.8e-4,-1.249317 5.8e-4,-2.499196 0,-3.749668 5.8e-4,-0.57229 5.8e-4,-1.145137 0,-1.718605 5.8e-4,-0.207659 5.8e-4,-0.41605 0,-0.624949 1.77128,-0.624352 3.54192,-1.249295 5.312,-1.87483 0.67764,-1.093098 1.35465,-2.186731 2.0311,-3.280963 1.45882,-0.884777 2.917,-1.770102 4.37462,-2.65602 0.99009,-0.103488 1.97959,-0.207652 2.96848,-0.312486 1.45882,0.05261 2.91703,0.104834 4.37462,0.156359 1.14636,0.521385 2.29208,1.042178 3.43721,1.56238 1.30258,1.042178 2.60454,2.083729 3.90591,3.124723 1.0422,1.458829 2.08376,2.917001 3.12473,4.374624 0.31309,1.146337 0.62556,2.292051 0.93744,3.43721 -0.15568,0.729692 -0.31188,1.4588 -0.46871,2.187309 z"
       inkscape:path-effect="#path-effect887" />
  </g>
  <g
     inkscape:groupmode="layer"
     id="layer2"
     inkscape:label="Camada 2"
     style="display:inline">
    <path
       style="fill:#c3c973;fill-opacity:1;stroke:#c3c973;stroke-width:0.590138px;stroke-linecap:butt;stroke-linejoin:miter;stroke-opacity:1"
       d="M 9.596787,94.326864 C 8.7116441,94.5872 6.9409585,95.10799 6.0554281,96.462419 c -0.8855303,1.354429 -0.8855303,3.541691 -0.7292172,5.364521 0.1563131,1.82282 0.4687737,3.281 0.7291841,4.42675 0.2604103,1.14576 0.4687176,1.97898 0.7551761,3.00755 0.2864584,1.02858 0.6510003,2.25239 1.1588488,3.52835 0.5078485,1.27596 1.1588166,2.60394 2.0312151,4.01006 0.872398,1.40611 1.966023,2.89032 3.35923,4.30941 1.393208,1.4191 3.085741,2.77312 4.609092,3.80161 1.52335,1.02849 2.877374,1.73155 4.934514,2.53871 2.057141,0.80716 4.817281,1.71852 7.52539,2.46061 2.70811,0.74208 5.364084,1.31494 7.629517,1.74457 2.265433,0.42963 4.140236,0.71605 5.950011,1.06762 1.809775,0.35157 3.554387,0.7682 5.481289,1.06759 1.926901,0.2994 4.036056,0.48167 6.223394,0.67697 2.187338,0.1953 4.452727,0.40361 5.754672,0.50774 1.301944,0.10413 1.640457,0.10413 -0.846343,-0.1302 -2.4868,-0.23433 -7.798727,-0.70303 -11.457304,-0.95042 -3.658578,-0.2474 -5.663574,-0.27343 -8.306613,-0.28645 -2.643038,-0.013 -5.923938,-0.013 -8.033138,-0.013 -2.109201,0 -3.04661,0 -3.515609,0.14351 -0.468999,0.1435 -0.468999,0.42993 -0.364483,0.63817 0.104515,0.20825 0.312793,0.33842 1.041875,0.42938 0.729081,0.0909 1.978939,0.14307 3.918908,0.24725 1.939969,0.10419 4.569891,0.26042 6.926465,0.33852 2.356574,0.0781 4.439701,0.0781 6.679128,0.13019 2.239427,0.0521 4.634993,0.15625 6.600988,0.24739 1.965995,0.0911 3.502282,0.16927 4.882425,0.36464 1.380143,0.19537 2.603968,0.50784 5.558925,1.00861 2.954957,0.50077 7.640855,1.18989 10.480816,2.80526 2.839961,1.61536 3.834234,4.15626 5.233629,7.58106 1.399395,3.4248 3.203795,7.73326 4.253212,11.01071 1.049417,3.27745 1.344009,5.52376 1.417556,6.90458 0.07355,1.38082 -0.07374,1.89635 -0.27624,6.16826 -0.202497,4.27191 -0.460273,12.29967 -0.589154,16.58984 -0.128881,4.29016 -0.128881,4.84253 -0.496779,4.93447 -0.367897,0.0919 -1.1044,-0.27631 -1.749021,-0.36861 -0.64462,-0.0923 -1.197,0.0918 -1.730953,0.25754 -0.533952,0.16572 -1.049504,0.31301 -1.60194,0.51555 -0.552436,0.20253 -1.14163,0.46031 -1.712502,0.77335 -0.570872,0.31304 -1.123242,0.68129 -1.65728,1.12324 -0.534037,0.44196 -1.049585,0.95749 -1.583557,1.49146 -0.533972,0.53397 -1.086343,1.08634 -1.583519,1.63876 -0.497176,0.55242 -0.939078,1.1048 -1.252123,1.63891 -0.313045,0.53412 -0.497156,1.04964 -0.662848,1.41779 -0.165692,0.36815 -0.313004,0.58912 3.701375,0.77316 4.014378,0.18405 12.188843,0.3313 20.364056,0.47856 0,0 5.192364,-25.74088 5.192364,-25.74088 0,0 38.44562,13.91996 38.44562,13.91996 0,0 72.03028,0.44193 72.03028,0.44193 0,0 48.60942,-21.43233 48.60942,-21.43233 -3.53523,11.23171 -10.49751,33.35146 -10.42442,33.51934 0.0731,0.16789 23.39169,-0.5575 23.97382,-1.46502 0.58213,-0.90751 -0.84463,-22.03713 -1.28655,-29.23652 -0.44192,-7.19938 -0.5524,-10.14533 -0.49719,-12.7784 0.0552,-2.63308 0.27615,-4.95304 0.55232,-6.6655 0.27616,-1.71245 0.60758,-2.81719 0.99425,-4.14291 0.38667,-1.32572 0.82857,-2.87236 1.3257,-4.25338 0.49714,-1.38103 1.04951,-2.59624 1.65714,-3.82993 0.60762,-1.23368 1.27046,-2.48571 2.00699,-3.75623 0.73652,-1.27052 1.54666,-2.55937 2.48574,-3.92196 0.93907,-1.36259 2.00698,-2.79874 3.03813,-4.06926 1.03114,-1.27052 2.0254,-2.37525 2.89079,-3.40634 0.86538,-1.03109 1.60187,-1.98853 2.3568,-2.96441 0.75492,-0.97589 1.52822,-1.97014 2.15424,-2.92755 0.62601,-0.95741 1.10472,-1.878 1.58346,-2.87228 0.47873,-0.99428 0.95745,-2.06217 1.30731,-3.0932 0.34985,-1.03103 0.5708,-2.02531 0.69972,-3.14843 0.12892,-1.12312 0.16572,-2.37516 0.18413,-3.60882 0.0184,-1.23365 0.0184,-2.44883 -0.0552,-3.46151 -0.0736,-1.01267 -0.22089,-1.82281 -0.3682,-2.66981 -0.14731,-0.847 -0.29461,-1.730747 -0.49709,-2.559318 -0.20248,-0.828571 -0.46024,-1.601874 -0.99404,-1.98889 -0.5338,-0.387016 -1.34394,-0.387016 -2.17287,0.441683 -0.82894,0.8287 -1.67591,2.485814 -2.5413,3.995615 -0.86539,1.5098 -1.74918,2.87231 -2.59618,4.19804 -0.84699,1.32573 -1.65713,2.61458 -2.63299,3.94026 -0.97586,1.32567 -2.11741,2.68817 -3.29582,4.06913 -1.17842,1.38096 -2.39363,2.78031 -3.51683,4.19812 -1.12319,1.41782 -2.15428,2.85398 -3.31426,4.25331 -1.15998,1.39933 -2.44885,2.76185 -3.75613,4.03231 -1.30729,1.27046 -2.63297,2.44885 -3.79302,3.57206 -1.16004,1.12321 -2.15429,2.19111 -3.60884,3.38789 -1.45455,1.19678 -3.36942,2.52247 -5.00815,3.62724 -1.63874,1.10476 -3.00124,1.98854 -4.36383,2.96444 -1.36258,0.9759 -2.72508,2.0438 -4.30853,3.09331 -1.58346,1.04952 -3.38786,2.08061 -5.13707,3.05649 -1.7492,0.97587 -3.44314,1.89649 -6.1682,3.11173 -2.72506,1.21525 -6.48116,2.72505 -10.01639,3.97713 -3.53523,1.25207 -6.84945,2.24634 -9.13254,2.79875 -2.2831,0.55241 -3.53513,0.66288 -4.27158,0.69979 -0.73644,0.0369 -0.95736,1.2e-4 -1.80452,-1.4542 -0.84716,-1.45431 -2.32015,-4.32663 -3.00152,-5.50505 -0.68138,-1.17841 -0.57092,-0.66291 -0.5526,1.10473 0.0183,1.76763 -0.0553,4.78723 -0.4972,6.5545 -0.44184,1.76726 -1.25198,2.28281 -2.4856,2.96407 -1.23363,0.68127 -2.89074,1.52824 -4.71351,2.1911 -1.82277,0.66287 -3.81131,1.14159 -5.96553,1.38101 -2.15423,0.23941 -4.47416,0.23941 -7.16245,0.29464 -2.68829,0.0552 -5.74474,0.1657 -9.00378,0.11049 -3.25904,-0.0552 -6.72055,-0.27615 -10.01644,-0.4971 -3.2959,-0.22096 -6.42598,-0.44191 -9.07743,-0.62604 -2.65145,-0.18413 -4.8241,-0.33142 -8.34094,-0.82853 -3.51684,-0.49711 -8.37769,-1.34408 -11.61832,-2.19094 -3.24063,-0.84687 -4.86091,-1.69384 -6.51806,-2.50403 -1.65715,-0.81018 -3.35106,-1.5835 -5.22918,-2.43049 -1.87811,-0.84699 -3.9403,-1.7676 -6.13143,-2.81711 -2.19113,-1.04951 -4.51109,-2.2279 -6.53652,-3.49831 -2.02543,-1.27041 -3.75619,-2.63292 -5.9289,-4.29009 -2.17271,-1.65716 -4.78725,-3.60887 -6.73906,-5.3396 -1.951812,-1.73073 -3.240667,-3.24054 -4.419125,-4.76879 -1.178458,-1.52824 -2.246371,-3.07489 -3.314376,-4.95298 -1.068005,-1.8781 -2.135913,-4.08756 -2.98291,-5.8736 -0.846998,-1.78604 -1.473018,-3.14855 -4.934509,-6.42615 -3.461491,-3.27761 -14.127625,-12.07248 -15.672313,-12.84507 -1.544688,-0.77259 -4.745243,-0.64828 -9.684503,-0.40982 -4.939259,0.23846 -5.171222,0.25503 -7.43601,0.42075 -2.264788,0.16572 -5.24759,0.38667 -7.862182,0.47877 -2.614591,0.0921 -4.8609,0.0553 -7.604406,-0.0551 -2.743506,-0.11046 -5.984055,-0.29458 -8.469745,-0.57072 -2.485689,-0.27614 -4.216459,-0.64438 -5.855188,-1.23348 -1.638729,-0.5891 -3.185362,-1.39925 -4.97142,-2.44874 -1.786059,-1.049501 -3.81138,-2.338332 -5.155794,-3.386264 -1.344414,-1.047931 -2.008171,-1.855724 -2.671411,-2.662887 0,0 0,0 0,0 0,0 9.2e-5,1.9e-5 -0.885051,0.260355 z"
       id="path287"
       sodipodi:nodetypes="ccccccccccccccccccccccccccccccccccccccccccccccccccccccccccccccccccccccccccccccccccccccccccccccccccccccccccccccccccccccccccccc"
       inkscape:original-d="m 10.48193,94.066528 c -1.7700813,0.521368 -3.5407621,1.042174 -5.3120322,1.562362 5.801e-4,2.187958 5.801e-4,4.37522 0,6.56193 0.3130651,1.45885 0.6255316,2.91702 0.9374089,4.37464 0.2090017,0.83386 0.4172299,1.6671 0.6249516,2.49978 0.3651429,1.22447 0.7296872,2.44828 1.0936607,3.67155 0.6515706,1.32865 1.3025606,2.65662 1.9529523,3.98404 1.0942497,1.48487 2.1878827,2.96907 3.2809637,4.45274 1.693172,1.35467 3.385717,2.70868 5.077683,4.06214 1.354666,0.70369 2.708697,1.40673 4.062158,2.10921 2.760821,0.91197 5.520961,1.82333 8.280539,2.73412 2.656661,0.57347 5.312634,1.14633 7.968071,1.71861 1.875449,0.28703 3.750252,0.57346 5.624497,0.85929 1.745281,0.41723 3.489892,0.83386 5.233927,1.2499 2.10982,0.1829 4.218977,0.36515 6.327577,0.54682 2.266066,0.209 4.531463,0.41723 6.796303,0.62495 0.339098,6e-4 0.677611,6e-4 1.015524,0 -5.31156,-0.46813 -10.623487,-0.93682 -15.936122,-1.40612 -2.004481,-0.0254 -4.009475,-0.0516 -6.015093,-0.0781 -3.280453,5.7e-4 -6.561353,5.7e-4 -9.842921,0 -0.936833,5.7e-4 -1.874242,5.7e-4 -2.81224,0 5.8e-4,0.28701 5.8e-4,0.57344 0,0.85928 0.208992,0.13071 0.417211,0.26098 0.624933,0.39059 1.25052,0.0526 2.500373,0.10484 3.749668,0.15635 2.630635,0.15681 5.260555,0.31308 7.889964,0.46871 2.083773,6.1e-4 4.1669,6.1e-4 6.249446,0 2.39628,0.10483 4.791846,0.20899 7.186884,0.31247 1.536952,0.0787 3.073241,0.15679 4.608995,0.23437 1.224451,0.31307 2.448275,0.62554 3.671536,0.93741 4.686687,0.68975 9.372586,1.37887 14.057998,2.06741 0.994893,2.54157 1.98916,5.08247 2.982868,7.62282 1.805061,4.30925 3.609467,8.61771 5.413324,12.92569 0.2952,2.24697 0.589794,4.49328 0.88379,6.73903 -0.146766,0.51615 -0.293996,1.03169 -0.441896,1.54666 -0.257192,8.02867 -0.514967,16.05643 -0.773342,24.08375 6.05e-4,0.55299 6.05e-4,1.10536 0,1.65713 -0.735912,-0.36766 -1.472409,-0.73592 -2.209504,-1.10474 -0.551814,0.18467 -1.104185,0.36882 -1.657154,0.55237 -0.514968,0.14788 -1.030513,0.2952 -1.546658,0.44189 -0.588618,0.25838 -1.177814,0.51615 -1.767609,0.77334 -0.551814,0.36885 -1.104185,0.7371 -1.657132,1.10477 -0.51499,0.51615 -1.030536,1.03169 -1.546687,1.54666 -0.551786,0.55297 -1.104157,1.10534 -1.657134,1.65713 -0.441309,0.55299 -0.883211,1.10537 -1.325706,1.65714 -0.183569,0.51617 -0.367645,1.03171 -0.55237,1.54668 -0.146765,0.22148 -0.294017,0.44249 -0.441895,0.66285 8.17595,0.14787 24.525639,0.44179 24.525639,0.44179 l 5.192364,-25.74088 38.44562,13.91996 72.03028,0.44193 48.60942,-21.43233 c 0,0 -10.4968,33.35168 -10.60569,33.69514 0.25439,-0.007 23.57298,-0.73268 24.85708,-0.77325 -0.11932,-1.77512 -1.54608,-22.90474 -2.32,-34.35799 -0.10995,-2.9455 -0.22036,-5.89145 -0.33144,-8.83808 0.22149,-2.31944 0.4425,-4.6394 0.66287,-6.95998 0.33202,-1.10418 0.66345,-2.20892 0.99429,-3.31429 0.44249,-1.54608 0.88438,-3.09272 1.3257,-4.63998 0.55298,-1.21466 1.10535,-2.42987 1.65713,-3.64571 0.66348,-1.25148 1.32629,-2.50352 1.98857,-3.75618 0.81077,-1.28831 1.6209,-2.57717 2.43047,-3.86664 1.06856,-1.43564 2.13646,-2.8718 3.20381,-4.30858 0.9949,-1.10419 1.98917,-2.20892 2.98285,-3.31426 0.73712,-0.9569 1.47361,-1.91433 2.20952,-2.87238 0.77393,-0.99373 1.54724,-1.98797 2.31999,-2.98287 0.47933,-0.92006 0.95803,-1.84065 1.43618,-2.76189 0.47934,-1.06737 0.95804,-2.13527 1.4362,-3.2038 0.22148,-0.9937 0.44248,-1.98797 0.66285,-2.98284 0.0375,-1.2515 0.0743,-2.50354 0.11041,-3.75618 5.9e-4,-1.21469 5.9e-4,-2.42987 0,-3.64571 -0.14677,-0.80959 -0.29402,-1.61973 -0.4419,-2.43047 -0.14676,-0.88325 -0.29402,-1.767007 -0.44192,-2.651429 -0.25718,-0.77276 -0.51497,-1.546054 -0.77331,-2.319975 -0.80959,5.8e-4 -1.61973,5.8e-4 -2.43048,0 -0.84641,1.657761 -1.69338,3.314877 -2.54095,4.971404 -0.88323,1.36316 -1.76703,2.72566 -2.65142,4.0876 -0.80959,1.28951 -1.61973,2.57837 -2.43048,3.86665 -1.14101,1.36317 -2.28256,2.72568 -3.42474,4.08761 -1.21467,1.39999 -2.42988,2.79933 -3.64571,4.19812 -1.03053,1.43678 -2.06162,2.87294 -3.09332,4.30855 -1.28832,1.36314 -2.57719,2.72565 -3.86666,4.08761 -1.32515,1.17901 -2.65084,2.3574 -3.97713,3.53523 -0.99373,1.06855 -1.98797,2.13646 -2.98286,3.20379 -1.91435,1.32634 -3.82924,2.65201 -5.74474,3.97714 -1.36198,0.88442 -2.72448,1.76821 -4.08761,2.65141 -1.36198,1.06855 -2.72447,2.13646 -4.08761,3.2038 -1.8039,1.03171 -3.60829,2.06281 -5.41332,3.09334 -1.6934,0.92124 -3.38733,1.84186 -5.0819,2.7619 -3.75565,1.51046 -7.51176,3.02024 -11.26853,4.5295 -3.31376,0.99489 -6.62798,1.98916 -9.94284,2.98285 -1.25148,0.11107 -2.50352,0.22148 -3.75619,0.33142 -0.22037,-0.0361 -0.44129,-0.0729 -0.66284,-0.11041 -1.47244,-2.87183 -2.94545,-5.74414 -4.41903,-8.6171 0.11107,0.51614 0.22148,1.03166 0.33142,1.54665 -0.0729,3.02038 -0.14676,6.03998 -0.22104,9.05903 -0.80958,0.51615 -1.61972,1.03169 -2.43047,1.54666 -1.65658,0.84759 -3.31369,1.69455 -4.97142,2.54095 -1.988,0.47932 -3.97654,0.95804 -5.9657,1.43618 -2.31946,5.8e-4 -4.63939,5.8e-4 -6.95999,0 -3.05596,0.11108 -6.11241,0.22148 -9.16948,0.33142 -3.46107,-0.22036 -6.92257,-0.44131 -10.38475,-0.66284 -3.12962,-0.22037 -6.2597,-0.44131 -9.39045,-0.66287 -2.17214,-0.14675 -4.3448,-0.29399 -6.51809,-0.44189 -4.86043,-0.84641 -9.72128,-1.69338 -14.58282,-2.54095 -1.61975,-0.84641 -3.24004,-1.69338 -4.86092,-2.54094 -1.69342,-0.77277 -3.38734,-1.54607 -5.0819,-2.32001 -2.06167,-0.92003 -4.12386,-1.84065 -6.18666,-2.76187 -2.31944,-1.17786 -4.6394,-2.35625 -6.95997,-3.53524 -1.73023,-1.36198 -3.46099,-2.72449 -5.19237,-4.0876 -2.61406,-1.9512 -5.22859,-3.90291 -7.84379,-5.85524 -1.288297,-1.50928 -2.577167,-3.01907 -3.866654,-4.52951 -1.067354,-1.5461 -2.135271,-3.09274 -3.203796,-4.64001 -1.067353,-2.20896 -2.135269,-4.41842 -3.203792,-6.62853 -0.625457,-1.36197 -1.251478,-2.72448 -1.878105,-4.08763 -6.296662,-5.19188 -16.962799,-13.98675 -18.891374,-15.57708 -1.160726,0.0457 -4.361283,0.16996 -11.37901,0.44198 -2.860769,0.20498 -3.092736,0.22149 -4.64,0.33143 -2.982311,0.22148 -5.965109,0.4425 -8.948555,0.66287 -2.245794,-0.0361 -4.492099,-0.0732 -6.739029,-0.11041 -3.240105,-0.18357 -6.480656,-0.36767 -9.721876,-0.55239 -1.730223,-0.36766 -3.460989,-0.73592 -5.192372,-1.10475 -1.5461,-0.80958 -3.092734,-1.61972 -4.639976,-2.43047 -2.024864,-1.288303 -4.050179,-2.577144 -6.076184,-3.866632 -0.662666,-0.806579 -1.989719,-2.421489 -1.989719,-2.421489 0,0 6.08e-4,5.82e-4 0,0 z"
       inkscape:path-effect="#path-effect289" />
  </g>
  <g
     inkscape:label="Camada 1"
     inkscape:groupmode="layer"
     id="layer1"
     style="display:inline">
    <path
       style="fill:#764004;fill-opacity:1;stroke:#764004;stroke-width:0.590138px;stroke-linecap:butt;stroke-linejoin:miter;stroke-opacity:1"
       d="m 197.64001,85.736346 c -0.0411,0.542047 -0.1231,1.625083 -0.20518,2.708649 0,0 10.52679,1.377455 10.52679,1.377455 -3.42686,-1.542717 -6.85301,-3.085116 -8.56679,-3.856634 -1.71378,-0.771518 -1.71376,-0.771518 -1.75482,-0.22947 z"
       id="path18149"
       inkscape:path-effect="#path-effect18151"
       inkscape:original-d="m 197.68107,85.194298 c -0.0814,1.08415 -0.24624,3.250697 -0.24624,3.250697 l 10.52679,1.377455 c 0,0 -6.85313,-3.084841 -10.28057,-4.628152 z"
       sodipodi:nodetypes="sccss" />
    <path
       style="fill:#764004;fill-opacity:1;stroke:#764004;stroke-width:0.590138px;stroke-linecap:butt;stroke-linejoin:miter;stroke-opacity:1"
       d="m 228.33368,94.546139 c 0,0 -4.1e-4,1.093653 -4.1e-4,1.093653 0,0 9.10429,4.880448 9.10429,4.880448 0,0 -9.10388,-5.974101 -9.10388,-5.974101 z"
       id="path18153"
       inkscape:path-effect="#path-effect18155"
       inkscape:original-d="m 228.33368,94.546139 -4.1e-4,1.093653 9.10429,4.880448 z"
       sodipodi:nodetypes="cccc" />
    <path
       style="fill:#764004;fill-opacity:1;stroke:#764004;stroke-width:0.590138px;stroke-linecap:butt;stroke-linejoin:miter;stroke-opacity:1"
       d="m 213.69193,94.261987 c 0,0 -1.79849,4.842653 -1.79849,4.842653 0,0 7.89119,-3.356153 7.89119,-3.356153 0,0 -6.0927,-1.4865 -6.0927,-1.4865 z"
       id="path18157"
       inkscape:path-effect="#path-effect18159"
       inkscape:original-d="m 213.69193,94.261987 -1.79849,4.842653 7.89119,-3.356153 z"
       sodipodi:nodetypes="cccc" />
    <path
       style="fill:#764004;fill-opacity:1;stroke:#764004;stroke-width:0.590138px;stroke-linecap:butt;stroke-linejoin:miter;stroke-opacity:1"
       d="m 206.35993,101.22484 c -1.00244,-0.16968 -0.89827,-0.16965 0.68985,0.69046 1.58813,0.86011 4.65938,2.57942 7.7314,4.29917 -0.31215,-0.88545 -0.62405,-1.77019 -1.1574,-2.46057 -0.53335,-0.69039 -1.28829,-1.18541 -2.72033,-1.60275 -1.43204,-0.41734 -3.54107,-0.75663 -4.54352,-0.92631 z"
       id="path18161"
       inkscape:path-effect="#path-effect18163"
       inkscape:original-d="m 205.25266,101.05512 c 0.10483,6e-4 0.209,6e-4 0.31245,1.1e-4 3.07268,1.72039 9.21607,5.15924 9.21607,5.15924 0,0 -0.6237,-1.77031 -0.93646,-2.65636 -0.75438,-0.49446 -1.50932,-0.98948 -2.26486,-1.4851 -2.10853,-0.3387 -4.21756,-0.678 -6.3272,-1.01789 z"
       sodipodi:nodetypes="cccccc" />
    <path
       style="fill:#764004;fill-opacity:1;stroke:#764004;stroke-width:0.590138px;stroke-linecap:butt;stroke-linejoin:miter;stroke-opacity:1"
       d="m 215.6399,107.77516 c 0,-0.002 2.7e-4,-0.72711 4e-4,-1.09166 1.45805,0.41717 4.25723,1.21807 4.25714,1.23268 -8e-5,0.0146 -2.79877,-0.0864 -4.25754,-0.13908 0,2e-5 0,6e-5 0,-0.002 z"
       id="path18165"
       inkscape:path-effect="#path-effect18167"
       inkscape:original-d="m 215.6399,107.77716 c 6e-4,-0.004 4e-4,-1.09366 4e-4,-1.09366 0,0 4.25712,1.21844 4.37415,1.25152 -0.1171,-0.004 -2.9158,-0.10462 -4.37455,-0.15792 0,0 5.8e-4,6.3e-4 0,6e-5 z"
       sodipodi:nodetypes="sccss" />
    <path
       style="fill:#faca64;fill-opacity:1;stroke:#faca64;stroke-width:0.590138px;stroke-linecap:butt;stroke-linejoin:miter;stroke-opacity:1"
       d="m 117.84983,189.11451 c 0.0582,2.60423 0.17463,7.81211 0.49924,10.80086 0.32461,2.98876 0.85692,3.75826 1.59658,4.35015 0.73966,0.5919 1.68636,1.0065 2.75323,1.4666 1.06687,0.46009 2.25383,0.96565 3.67403,1.23235 1.42019,0.2667 3.07359,0.2948 4.69924,0.309 1.62565,0.0142 3.22348,0.0145 4.52544,-0.0148 1.30196,-0.0293 2.30747,-0.0881 3.31355,-0.14686 -1.65633,-1.89438 -3.31213,-3.78814 -4.67268,-5.44568 -1.36056,-1.65753 -2.42525,-3.07822 -2.72127,-3.07829 -0.29603,-7e-5 0.17688,1.42039 0.029,1.50908 -0.1479,0.0887 -0.91676,-1.15434 -1.73253,-2.58902 -0.81576,-1.43468 -1.6783,-3.06087 -2.54093,-4.42599 -0.86264,-1.36511 -1.72536,-2.46888 -2.77971,-3.40761 -1.05435,-0.93873 -2.30039,-1.71209 -3.44917,-2.21211 -1.14877,-0.50002 -2.20015,-0.72636 -2.72618,-0.8396 -0.52604,-0.11324 -0.52604,-0.11235 -0.46782,2.49189 z"
       id="path20209"
       inkscape:path-effect="#path-effect20211"
       inkscape:original-d="m 117.79161,186.51027 c 0.1171,5.20846 0.23343,10.41634 0.34926,15.62362 0.53295,0.77014 1.06524,1.53965 1.59698,2.3086 0.94734,0.41521 1.89403,0.82982 2.84019,1.24384 1.18759,0.50617 2.37455,1.01173 3.56099,1.51673 1.65406,0.0287 3.30746,0.0569 4.9603,0.0843 1.59847,9.2e-4 3.1963,9.2e-4 4.79356,9.2e-4 1.00669,-0.0583 3.01825,-0.17644 3.01825,-0.17644 0,0 -3.31209,-3.78818 -4.969,-5.68313 -1.06414,-1.42015 -2.12883,-2.84084 -3.19414,-4.26215 0.47354,1.42111 0.94643,2.84158 1.41875,4.26148 -0.76833,-1.2425 -1.53718,-2.48553 -2.30664,-3.72917 -0.862,-1.62574 -1.72454,-3.25193 -2.58775,-4.87884 -0.8622,-1.10327 -1.72493,-2.20703 -2.58831,-3.31146 -1.24551,-0.7728 -2.49154,-1.54617 -3.73826,-2.32018 -1.05083,-0.22574 -2.1022,-0.45209 -3.15418,-0.67901 z"
       sodipodi:nodetypes="sccccccccccccccss" />
    <path
       style="fill:#48583d;fill-opacity:1;stroke:#48583d;stroke-width:0.590138px;stroke-linecap:butt;stroke-linejoin:miter;stroke-opacity:1"
       d="m 2.3098193,87.274508 c 0,0 5.6784284,7.636309 5.6784284,7.636309 0,0 1.9532016,-0.709441 1.9532016,-0.709441 0,0 0.1806697,-8.344306 0.1806697,-8.344306 -2.6040876,0.472479 -5.2076987,0.944872 -6.5099807,1.181155 -1.3022821,0.236283 -1.302319,0.236283 -1.302319,0.236283 z"
       id="path20197"
       inkscape:path-effect="#path-effect20199"
       inkscape:original-d="m 2.3098193,87.274508 5.6784284,7.636309 1.9532016,-0.709441 0.1806697,-8.344306 c 0,0 -5.2075735,0.945562 -7.8122628,1.417438 z"
       sodipodi:nodetypes="ccccsc" />
    <path
       style="fill:#48583d;fill-opacity:1;stroke:#48583d;stroke-width:0.590138px;stroke-linecap:butt;stroke-linejoin:miter;stroke-opacity:1"
       d="m 45.715267,114.99205 c 2.278706,0.0304 6.834938,0.0913 11.39176,0.15222 -1.00575,-0.82889 -2.010858,-1.65725 -3.223773,-2.3384 -1.212915,-0.68116 -2.633014,-1.21429 -3.875878,-1.36288 -1.242864,-0.14859 -2.308165,0.0877 -3.373872,0.73837 -1.065707,0.65065 -2.131314,1.71547 -3.196943,2.78031 0,0 0,-7e-5 2.278706,0.0304 z"
       id="path20201"
       inkscape:path-effect="#path-effect20203"
       inkscape:original-d="m 43.436561,114.9616 c 4.557403,0.0616 13.670466,0.18267 13.670466,0.18267 0,0 -2.010909,-1.65719 -3.017249,-2.48667 -1.419558,-0.53257 -2.839652,-1.06572 -4.260359,-1.59943 -1.064756,0.23691 -2.130057,0.47323 -3.195972,0.70897 -1.065066,1.06545 -3.196886,3.19453 -3.196886,3.19453 z"
       sodipodi:nodetypes="sccccss" />
    <path
       style="fill:#48583d;fill-opacity:1;stroke:#48583d;stroke-width:0.590138px;stroke-linecap:butt;stroke-linejoin:miter;stroke-opacity:1"
       d="m 85.96367,97.756069 c 1.119893,12.191461 2.239845,24.383571 2.858137,32.669001 0.618292,8.28544 0.735023,12.66469 0.467286,16.33369 -0.267736,3.669 -0.919797,6.62768 -1.630975,9.3201 -0.711177,2.69241 -1.481396,5.11844 -2.401008,7.35673 -0.919612,2.23828 -1.988546,4.2888 -3.299714,5.9336 -1.311168,1.64481 -2.864611,2.88399 -4.696296,3.62158 -1.831686,0.7376 -3.941859,0.97352 -6.386063,0.75333 -2.444204,-0.22019 -5.22232,-0.89669 -6.555482,-1.65472 -1.333162,-0.75803 -1.220442,-1.59787 -0.867487,-3.88191 0.352954,-2.28404 0.946127,-6.01209 1.272881,-9.32601 0.326754,-3.31392 0.387013,-6.21366 0.240192,-9.14312 -0.14682,-2.92946 -0.500786,-5.88843 -0.795385,-9.46902 -0.2946,-3.58059 -0.529749,-7.78227 -0.535495,-11.7301 -0.0057,-3.94784 0.217976,-7.64125 1.018209,-11.22154 0.800233,-3.58029 2.17698,-7.04679 3.753484,-9.69722 1.576503,-2.65042 3.352547,-4.48431 5.45413,-5.84474 2.101583,-1.36043 4.528237,-2.247203 6.599842,-2.838213 2.071606,-0.591011 3.787419,-0.88618 5.503744,-1.181438 z"
       id="path20205"
       inkscape:path-effect="#path-effect20207"
       inkscape:original-d="m 85.96367,97.756069 c 0,0 2.24037,24.383521 3.359678,36.574381 0.117322,4.38004 0.234039,8.7593 0.350198,13.13805 -0.651512,2.95941 -1.30356,5.91809 -1.956235,8.87627 -0.769659,2.42673 -1.539874,4.85276 -2.310716,7.27827 -1.068403,2.05119 -2.137333,4.10171 -3.206912,6.15176 -1.552941,1.23984 -3.106374,2.47904 -4.660492,3.71769 -2.109706,0.23651 -4.219878,0.47244 -6.330768,0.70779 -2.777695,-0.67594 -5.555813,-1.35243 -8.334684,-2.02958 0.113307,-0.83926 0.226037,-1.6791 0.338168,-2.51958 0.593788,-3.72758 1.186957,-7.45563 1.779548,-11.18433 0.06085,-2.89924 0.121091,-5.79898 0.180779,-8.69937 -0.353403,-2.9586 -0.707369,-5.91757 -1.061949,-8.87736 -0.234574,-4.20136 -0.469718,-8.40304 -0.705476,-12.60557 0.224332,-3.69307 0.448052,-7.38648 0.6712,-11.08073 1.377402,-3.46609 2.754154,-6.93259 4.130344,-10.39977 1.776703,-1.83337 3.552743,-3.66726 5.328227,-5.50176 2.427349,-0.88622 4.853999,-1.773007 7.280115,-2.660388 1.71695,-0.294687 5.148975,-0.885773 5.148975,-0.885773 z"
       sodipodi:nodetypes="ccccccccccccccccccc" />
  </g>
</svg>
